# xmcd
#
# Track frame offsets: 
#        150
#        11547
#        27537
#        46527
#        64757
#        85362
#        102552
#        126910
#        147782
#        166237
#        188547
#        207732
#        224247
#        247592
#
# Disc length: 3427 seconds
#
# Revision: 6
# Processed by: cddbd v1.5.2PL0 Copyright (c) Steve Scherf et al.
# Submitted via: ExactAudioCopy v0.95b4
#
DISCID=c60d610e
DTITLE=Various Artist - Lounge-A-Palooza
DYEAR=1997
DGENRE=Lounge
TTITLE0=Combustible Edison and Esquivel! - Miniskirt
TTITLE1=Fastball - This Guy's In Love With You
TTITLE2=Ben Folds Five - She Don't Use Jelly
TTITLE3=Poe - A Rose Is A Rose
TTITLE4=Steve and Eydie - Black Hole Sun
TTITLE5=Pizzicato Five - The Girl From Ipanema
TTITLE6=P.J. Harvey and Eric Drew Feldman - Zaz Turned Blue
TTITLE7=Fun Lovin' Criminals - I'm Not In Love
TTITLE8=Glen Campbell and Michelle Shocked with Texas Tornados - Wichita
TTITLE8=Lineman
TTITLE9=Edwyn Collins - Witchcraft
TTITLE10=Jimmy Scott and Flea - Love Will Keep Us Together
TTITLE11=James Taylor Quartet, The - Music To Watch Girls By
TTITLE12=Cassandra Wilson - The Good Life
TTITLE13=Chris Ballew - Robert Goulet ( On the River Nile )
EXTD=
EXTT0=
EXTT1=
EXTT2=
EXTT3=
EXTT4=
EXTT5=
EXTT6=
EXTT7=
EXTT8=
EXTT9=
EXTT10=
EXTT11=
EXTT12=
EXTT13=
PLAYORDER=
